<?xml version="1.0" standalone="no"?>
<svg viewBox="0 0 200 200" xmlns="http://www.w3.org/2000/svg">
  <path fill="#8A3FFC" d="M34.8,-42.9C49.9,-44.5,70.2,-42.9,77.4,-33.5C84.7,-24.1,78.8,-6.8,75,9.9C71.3,26.6,69.7,42.8,61.4,54.4C53.2,65.9,38.3,72.8,23.6,74.5C8.9,76.1,-5.7,72.5,-21.8,69.7C-37.9,67,-55.5,65.2,-54.3,54.1C-53.1,42.9,-33.1,22.4,-24.9,10C-16.7,-2.4,-20.4,-6.7,-20.7,-10.8C-20.9,-14.8,-17.7,-18.7,-13.6,-22.1C-9.6,-25.5,-4.8,-28.4,2.5,-32.4C9.9,-36.3,19.7,-41.2,34.8,-42.9Z" transform="translate(100 100)" />
</svg>
